<svg width="59" height="20" fill="none" xmlns="http://www.w3.org/2000/svg"><g clip-path="url(#a)"><path d="M0 19.6V.2h6.7c.8 0 1.7.2 2.5.4.7.3 1.4.7 2 1.3A5.7 5.7 0 0 1 13 6.2a5.7 5.7 0 0 1-1.8 4.2A6.9 6.9 0 0 1 6.7 12H3.1v7.6H0ZM6.8 9.2c.4 0 1-.1 1.3-.3a3 3 0 0 0 1.7-1.7A2.9 2.9 0 0 0 9 4.1a3.2 3.2 0 0 0-2.3-1H3v6h3.7ZM15.4 6.3v13.3h3V6.3h-3Z" fill="#191919"/><path d="M19 2a2 2 0 0 1-.7 1.5A2 2 0 0 1 17 4V0a2 2 0 0 1 1.4.6A2 2 0 0 1 19 2Z" fill="#35AF39"/><path d="M17 0v4a2 2 0 0 1-1.5-.5 2 2 0 0 1-.6-1.5 2 2 0 0 1 .6-1.4 2 2 0 0 1 1.4-.6Z" fill="#00BAFC"/><path d="m25 12.8-4.6-6.5H24l2.9 4.2 2.7-4.2h3.7l-4.7 6.5 4.7 6.8h-3.5l-2.9-4.4-3 4.4h-3.4l4.6-6.8ZM46.8 16.4c-.5 1-1.4 2-2.3 2.6-1 .7-2.3 1-3.8 1a7 7 0 0 1-2.8-.5 6.5 6.5 0 0 1-3.6-3.7c-.3-1-.5-1.9-.5-2.9a7.6 7.6 0 0 1 1.9-5 6.5 6.5 0 0 1 4.8-2c1 0 2 .2 2.8.5a5.8 5.8 0 0 1 3.3 3.7c.3.9.5 1.8.5 2.8v.5l-.1.2H36.8c0 .6.2 1.1.5 1.6.2.5.5.9.9 1.2l1.2.7 1.4.2c.8 0 1.5-.2 2-.6.6-.4 1.1-1 1.5-1.6l2.5 1.3Zm-2.7-5.1-.3-1-.6-.8a3.6 3.6 0 0 0-2.7-1c-.9 0-1.6.2-2.2.7-.7.5-1 1.2-1.3 2.1h7ZM49.3 6.3h2.9v2h.1l.7-1 1-.7a6 6 0 0 1 1-.5l1.2-.2 1 .1c.4 0 .6.2 1 .4l-1 2.7-.6-.2a5 5 0 0 0-.9 0 3 3 0 0 0-1.3.2 3.5 3.5 0 0 0-1.8 2l-.3 1.5v7h-3V6.3Z" fill="#191919"/></g><defs><clipPath id="a"><path fill="#fff" d="M0 0h58.1v20H0z"/></clipPath></defs></svg>